<svg viewBox="0 0 60 60" xmlns="http://www.w3.org/2000/svg" fill-rule="evenodd" clip-rule="evenodd">
  <g fill-rule="nonzero">
    <path d="M3.696 24.193h10.507c5.219 0 8.675-2.558 8.675-6.6v-.069c0-3.353-2.558-5.012-5.461-5.772a5.992 5.992 0 0 0 4.113-5.737v-.069a5.216 5.216 0 0 0-1.555-3.8 8.805 8.805 0 0 0-6.29-2.143H3.696v24.19zm1.8-13.03v-9.5h8.156c3.871 0 6.049 1.8 6.049 4.458v.069c0 3.214-2.592 4.977-6.221 4.977l-7.984-.004zm0 11.371v-9.712h8.191c4.77 0 7.362 1.728 7.362 4.7v.069c0 3.042-2.627 4.942-6.774 4.942l-8.779.001zm44.778 2.489c3.657.037 7.16-1.5 9.608-4.217l-1.209-1.175c-2.456 2.419-4.839 3.769-8.329 3.769-5.772 0-10.231-4.769-10.231-10.887v-.069c0-6.083 4.39-10.818 10.2-10.818a11.104 11.104 0 0 1 8.156 3.56l1.279-1.313a12.76 12.76 0 0 0-9.4-3.871c-6.982 0-12.1 5.668-12.1 12.511v.069c0 6.947 5.115 12.442 12.027 12.442M22.48 60l1.417-1.175-4.458-4.6a33.761 33.761 0 0 0 3.594-6.429l-1.626-.653a31.252 31.252 0 0 1-3.145 5.876l-6.355-6.533c3.7-1.279 5.945-3.249 5.945-6.256v-.069c-.061-2.902-2.465-5.257-5.368-5.257-.066 0-.131.002-.197.004-3.525 0-6.048 2.385-6.048 5.5v.069c0 2 .864 3.491 2.7 5.53-3.94 1.451-6.256 3.836-6.256 7.085v.069c0 3.94 3.18 6.7 7.431 6.7 3.249 0 5.91-1.521 8.191-4.182L22.48 60zM10.833 45.38c-2.143-2.281-2.8-3.456-2.8-4.977v-.069a3.968 3.968 0 0 1 4.182-3.906l.08-.001a3.774 3.774 0 0 1 3.756 3.756v.114c0 2.281-1.763 3.975-5.219 5.081m-.691 12.926c-3.318 0-5.668-2.281-5.668-5.219v-.069c0-2.35 1.694-4.6 5.53-5.91l7.154 7.4c-2 2.35-4.32 3.8-7.016 3.8m27.513 1.24h8.053c7.6 0 12.857-5.288 12.857-12.1v-.069c0-6.809-5.253-12.028-12.857-12.028h-8.053v24.197zm1.8-1.659V37.016h6.256c6.74 0 10.991 4.7 10.991 10.438v.069c0 5.772-4.251 10.368-10.991 10.368l-6.256-.004z" fill="#333"/>
    <path d="M30.004 0v59.998V0zM.005 29.549h59.998H.005z" stroke="#333" fill="none"/>
  </g>
</svg>
