<svg xmlns="http://www.w3.org/2000/svg" viewBox="0 0 184 72.135">
  <defs>
    <style>
      .cls-1{fill:#221e1f}.cls-4{fill-rule:evenodd;fill:#fff}
    </style>
  </defs>
  <g id="logo" transform="translate(-220 -4027.313)">
    <g id="Group_19" data-name="Group 19" transform="translate(220 4027.313)">
      <path id="Path_16" data-name="Path 16" class="cls-1" d="M311.274-202.03h11.18c5.553 0 9.23-2.722 9.23-7.025v-.074c0-3.567-2.721-5.333-5.81-6.142a6.362 6.362 0 0 0 4.376-6.105v-.074a5.549 5.549 0 0 0-1.655-4.046 9.358 9.358 0 0 0-6.693-2.28h-10.628zm1.912-13.866v-10.114h8.679c4.119 0 6.435 1.913 6.435 4.745v.074c0 3.42-2.758 5.3-6.619 5.3zm0 12.1v-10.334h8.714c5.075 0 7.833 1.839 7.833 5v.074c0 3.237-2.795 5.26-7.208 5.26zm24.639 1.766h17.027v-1.77h-15.115v-23.98h-1.912zm23.021 0h1.912v-25.746h-1.912zm18.534.368c4.965 0 8.532-2.869 8.532-7.025v-.074c0-3.752-2.5-5.885-8.458-7.1-6.1-1.25-7.5-2.906-7.5-5.627v-.074c0-2.685 2.5-4.855 6.288-4.855a11.08 11.08 0 0 1 7.686 2.906l1.213-1.508a12.831 12.831 0 0 0-8.826-3.126c-4.781 0-8.274 2.942-8.274 6.767v.074c0 3.9 2.5 5.995 8.679 7.246 5.847 1.177 7.281 2.759 7.281 5.48v.074c0 2.942-2.648 5.112-6.509 5.112a12.5 12.5 0 0 1-9.23-3.825l-1.25 1.434a14.651 14.651 0 0 0 10.37 4.119m23.168 0c4.965 0 8.532-2.869 8.532-7.025v-.074c0-3.752-2.5-5.885-8.458-7.1-6.1-1.25-7.5-2.906-7.5-5.627v-.074c0-2.685 2.5-4.855 6.288-4.855a11.08 11.08 0 0 1 7.686 2.906l1.214-1.508a12.832 12.832 0 0 0-8.826-3.126c-4.781 0-8.275 2.942-8.275 6.767v.074c0 3.9 2.5 5.995 8.679 7.246 5.847 1.177 7.281 2.759 7.281 5.48v.074c0 2.942-2.648 5.112-6.509 5.112a12.5 12.5 0 0 1-9.23-3.825l-1.25 1.434a14.651 14.651 0 0 0 10.371 4.119" transform="translate(-227.08 239.949)"/>
      <path id="Path_17" data-name="Path 17" class="cls-1" d="M314.935-90.526a3.482 3.482 0 0 0 2.759-1.338l-.451-.4a3.023 3.023 0 0 1-2.268 1.128 2.845 2.845 0 0 1-2.785-2.932v-.027A2.8 2.8 0 0 1 314.922-97a3.047 3.047 0 0 1 2.255 1.115l.464-.478a3.549 3.549 0 0 0-2.706-1.245 3.511 3.511 0 0 0-3.447 3.541v.026a3.479 3.479 0 0 0 3.447 3.514m7.388 0a3.493 3.493 0 0 0 3.487-3.541v-.027a3.457 3.457 0 0 0-3.461-3.514 3.493 3.493 0 0 0-3.487 3.541v.026a3.457 3.457 0 0 0 3.461 3.514m.026-.609a2.837 2.837 0 0 1-2.786-2.932v-.027a2.792 2.792 0 0 1 2.76-2.904 2.837 2.837 0 0 1 2.786 2.933v.026a2.792 2.792 0 0 1-2.76 2.906m5.558.449h.648v-9.682h-.648zm6.206.159a3.493 3.493 0 0 0 3.487-3.541v-.027a3.457 3.457 0 0 0-3.461-3.514 3.493 3.493 0 0 0-3.487 3.541v.026a3.457 3.457 0 0 0 3.461 3.514m.026-.609a2.837 2.837 0 0 1-2.786-2.932v-.027A2.792 2.792 0 0 1 334.114-97a2.837 2.837 0 0 1 2.786 2.933v.026a2.792 2.792 0 0 1-2.76 2.906m8.037.609a2.648 2.648 0 0 0 2.441-1.418v1.259h.648v-6.763h-.648v3.912a2.32 2.32 0 0 1-2.348 2.415 2.066 2.066 0 0 1-2.15-2.308v-4.019h-.648v4.139a2.574 2.574 0 0 0 2.7 2.784m5.558-.159h.648v-2.772c0-2.2 1.366-3.383 2.931-3.383h.066v-.715a3.2 3.2 0 0 0-3 2.028v-1.922h-.648zm16.3.186l.544-.45-1.711-1.764a12.958 12.958 0 0 0 1.379-2.468l-.623-.252a12 12 0 0 1-1.207 2.255l-2.44-2.508c1.42-.491 2.281-1.247 2.281-2.4v-.027a2.058 2.058 0 0 0-2.135-2.015 2.159 2.159 0 0 0-2.32 2.108v.026a3.058 3.058 0 0 0 1.033 2.123c-1.512.557-2.4 1.473-2.4 2.72v.027a2.631 2.631 0 0 0 2.85 2.572 4.043 4.043 0 0 0 3.143-1.6zm-4.469-5.61c-.823-.876-1.075-1.327-1.075-1.911v-.027a1.517 1.517 0 0 1 1.606-1.5 1.442 1.442 0 0 1 1.473 1.459v.026c0 .876-.677 1.526-2 1.95m-.266 4.962a2.038 2.038 0 0 1-2.176-2v-.026c0-.9.652-1.765 2.123-2.269l2.746 2.839a3.564 3.564 0 0 1-2.693 1.459m13.781.622a3.266 3.266 0 0 0 2.786-1.67v1.511h.648v-9.682h-.648v4.376a3.253 3.253 0 0 0-2.786-1.617 3.381 3.381 0 0 0-3.288 3.54v.026a3.357 3.357 0 0 0 3.288 3.515m.066-.622a2.723 2.723 0 0 1-2.653-2.919v-.027a2.647 2.647 0 0 1 2.653-2.892 2.825 2.825 0 0 1 2.76 2.906v.027a2.834 2.834 0 0 1-2.76 2.906m8.687.622a3.551 3.551 0 0 0 2.8-1.272l-.45-.4a3.039 3.039 0 0 1-2.322 1.062 2.683 2.683 0 0 1-2.653-2.668h5.61a1.691 1.691 0 0 0 .013-.265c0-2-1.206-3.541-3.1-3.541a3.332 3.332 0 0 0-3.209 3.528v.026a3.36 3.36 0 0 0 3.315 3.528m-2.627-3.858a2.637 2.637 0 0 1 2.494-2.628 2.509 2.509 0 0 1 2.428 2.628zm9.709 3.832a2.1 2.1 0 0 0 2.334-1.975v-.026c0-1.194-1.139-1.592-2.227-1.9-.969-.279-1.884-.557-1.884-1.314v-.026c0-.677.61-1.181 1.539-1.181a3.884 3.884 0 0 1 2.083.677l.344-.544a4.565 4.565 0 0 0-2.4-.741 1.987 1.987 0 0 0-2.227 1.869v.027c0 1.207 1.219 1.539 2.32 1.857.942.265 1.791.557 1.791 1.353v.027c0 .783-.717 1.287-1.632 1.287a3.961 3.961 0 0 1-2.427-.889l-.384.517a4.627 4.627 0 0 0 2.771.98m4.417-8.662h.807v-.887h-.807zm.079 8.529h.648v-6.763h-.648zm6.18 2.149a3.428 3.428 0 0 0 2.455-.9 3.138 3.138 0 0 0 .861-2.295v-5.717h-.648v1.35a3.361 3.361 0 0 0-2.826-1.512 3.216 3.216 0 0 0-3.249 3.209v.026a3.2 3.2 0 0 0 3.249 3.183 3.364 3.364 0 0 0 2.826-1.564v.982a2.433 2.433 0 0 1-2.653 2.627 4.419 4.419 0 0 1-2.733-.956l-.384.531a5.106 5.106 0 0 0 3.1 1.034m-.093-3.275a2.57 2.57 0 0 1-2.614-2.587v-.027a2.5 2.5 0 0 1 2.614-2.561 2.685 2.685 0 0 1 2.8 2.574v.026a2.7 2.7 0 0 1-2.8 2.574m5.876 1.126h.648v-3.91a2.319 2.319 0 0 1 2.348-2.414 2.066 2.066 0 0 1 2.149 2.308v4.019h.648v-4.139a2.574 2.574 0 0 0-2.7-2.784 2.648 2.648 0 0 0-2.441 1.418v-1.258h-.648z" transform="translate(-227.232 148.866)"/>
      <path id="Path_18" data-name="Path 18" d="M311.487-116.786h99.683v-1.362h-99.683z" transform="translate(-227.232 161.541)" fill-rule="evenodd" fill="#221e1f"/>
      <path id="Path_19" data-name="Path 19" d="M85.449-143.371v23.394l-11.888 11.746-11.767-11.746v-23.394z" transform="translate(-49.233 179.521)" fill="#ffe44c"/>
      <path id="Path_20" data-name="Path 20" class="cls-4" d="M84.56-121.216l-12.491 12.341L59.7-121.218v-24.243h24.86zM60.9-144.261v22.545l11.169 11.149 11.286-11.151v-22.543z" transform="translate(-47.743 181.01)"/>
      <path id="Path_21" data-name="Path 21" d="M143.772-143.413h23.465l11.781 11.852-11.781 11.731h-23.465z" transform="translate(-107.673 179.551)" fill="#133b63"/>
      <path id="Path_22" data-name="Path 22" class="cls-4" d="M178.377-133.048L166-120.719h-24.318V-145.5H166zm-35.5-11.254v22.383H165.5l11.181-11.133L165.5-144.3z" transform="translate(-106.183 181.04)"/>
      <path id="Path_23" data-name="Path 23" d="M155.743-266.308l11.767 11.746v23.394h-23.655v-23.394z" transform="translate(-107.732 267.154)" fill="#f26f72"/>
      <path id="Path_24" data-name="Path 24" class="cls-4" d="M166.621-256.911v24.243h-24.856v-24.245l12.491-12.341zm-23.656.5v22.543h22.455v-22.545l-11.169-11.149z" transform="translate(-106.242 269.254)"/>
      <path id="Path_25" data-name="Path 25" d="M56.251-202.062H32.786L21-213.915l11.781-11.731h23.47z" transform="translate(-20.156 238.169)" fill="#15c0e1"/>
      <path id="Path_26" data-name="Path 26" class="cls-4" d="M54.745-202.952H30.43l-12.38-12.455 12.382-12.329h24.313zm-23.818-23.584L19.746-215.4l11.183 11.25h22.616v-22.383z" transform="translate(-18.05 239.659)"/>
    </g>
  </g>
</svg>
